<?xml version="1.0" encoding="UTF-8"?>
<svg id="Layer_2" data-name="Layer 2" xmlns="http://www.w3.org/2000/svg" xmlns:xlink="http://www.w3.org/1999/xlink" viewBox="0 0 364.32 82.26">
  <defs>
    <style>
      .cls-1 {
        fill: url(#linear-gradient);
      }
    </style>
    <linearGradient id="linear-gradient" x1="0" y1="41.13" x2="364.32" y2="41.13" gradientUnits="userSpaceOnUse">
      <stop offset="0" stop-color="#00cef4"/>
      <stop offset=".08" stop-color="#17b3f5"/>
      <stop offset=".23" stop-color="#3c8af7"/>
      <stop offset=".37" stop-color="#5b67f9"/>
      <stop offset=".52" stop-color="#734dfa"/>
      <stop offset=".68" stop-color="#843afb"/>
      <stop offset=".83" stop-color="#8e2efb"/>
      <stop offset="1" stop-color="#922bfc"/>
    </linearGradient>
  </defs>
  <g id="Layer_1-2" data-name="Layer 1">
    <path class="cls-1" d="M0,64.26V1.26h10.89v53.19h29.52v9.81H0ZM70.2,65.52c-4.44,0-8.42-.92-11.92-2.74-3.51-1.83-6.27-4.44-8.28-7.83-2.01-3.39-3.01-7.45-3.01-12.19v-1.44c0-4.74,1-8.82,3.01-12.24,2.01-3.42,4.77-6.03,8.28-7.83,3.51-1.8,7.48-2.7,11.92-2.7s8.4.9,11.88,2.7c3.48,1.8,6.22,4.41,8.24,7.83,2.01,3.42,3.01,7.5,3.01,12.24v1.44c0,4.74-1.01,8.81-3.01,12.19-2.01,3.39-4.76,6-8.24,7.83-3.48,1.83-7.44,2.74-11.88,2.74ZM70.2,56.34c3.78,0,6.87-1.21,9.27-3.65,2.4-2.43,3.6-5.83,3.6-10.21v-.9c0-4.38-1.2-7.78-3.6-10.21-2.4-2.43-5.49-3.65-9.27-3.65s-6.87,1.21-9.27,3.65c-2.4,2.43-3.6,5.84-3.6,10.21v.9c0,4.38,1.2,7.78,3.6,10.21,2.4,2.43,5.49,3.65,9.27,3.65ZM119.7,64.26c-2.88,0-5.18-.85-6.89-2.56s-2.56-4.03-2.56-6.98v-26.37h-11.61v-8.55h11.61V5.49h10.35v14.31h12.78v8.55h-12.78v24.66c0,1.8.84,2.7,2.52,2.7h8.91v8.55h-12.33ZM165.24,65.52c-4.8,0-9.04-.85-12.73-2.56s-6.59-4.19-8.69-7.42c-2.1-3.24-3.15-7.2-3.15-11.88v-2.34h10.71v2.34c0,4.14,1.26,7.23,3.78,9.27,2.52,2.04,5.88,3.06,10.08,3.06s7.47-.87,9.63-2.61c2.16-1.74,3.24-3.99,3.24-6.75,0-1.86-.51-3.38-1.53-4.54-1.02-1.17-2.51-2.11-4.46-2.83-1.95-.72-4.31-1.41-7.06-2.07l-2.7-.54c-4.14-.96-7.73-2.17-10.75-3.65-3.03-1.47-5.35-3.38-6.98-5.72-1.62-2.34-2.43-5.4-2.43-9.18s.9-7.02,2.7-9.72c1.8-2.7,4.35-4.77,7.65-6.21,3.3-1.44,7.17-2.16,11.61-2.16s8.4.75,11.88,2.25c3.48,1.5,6.22,3.75,8.23,6.75,2.01,3,3.02,6.75,3.02,11.25v2.97h-10.71v-2.97c0-2.58-.51-4.65-1.53-6.21-1.02-1.56-2.46-2.7-4.32-3.42-1.86-.72-4.05-1.08-6.57-1.08-3.72,0-6.54.72-8.46,2.16-1.92,1.44-2.88,3.48-2.88,6.12,0,1.68.43,3.1,1.31,4.27.87,1.17,2.16,2.13,3.87,2.88,1.71.75,3.85,1.4,6.44,1.94l2.7.63c4.32.96,8.1,2.18,11.34,3.65,3.24,1.47,5.77,3.41,7.6,5.81,1.83,2.4,2.75,5.52,2.75,9.36s-.98,7.11-2.92,9.99c-1.95,2.88-4.68,5.13-8.19,6.75-3.51,1.62-7.67,2.43-12.47,2.43ZM203.76,14.13c-1.86,0-3.46-.61-4.82-1.85-1.35-1.23-2.02-2.86-2.02-4.9s.67-3.67,2.02-4.91c1.35-1.23,2.96-1.84,4.82-1.84,1.98,0,3.61.62,4.91,1.84,1.29,1.23,1.93,2.87,1.93,4.91s-.65,3.68-1.93,4.9c-1.29,1.23-2.93,1.85-4.91,1.85ZM198.63,64.26V19.8h10.35v44.46h-10.35ZM219.96,42.21v-1.35c0-4.68.93-8.69,2.79-12.02,1.86-3.33,4.35-5.88,7.47-7.65,3.12-1.77,6.54-2.66,10.26-2.66,4.2,0,7.39.75,9.58,2.25,2.19,1.5,3.79,3.12,4.82,4.86h1.53v-5.85h10.08v52.92c0,2.94-.84,5.27-2.52,6.98-1.68,1.71-3.96,2.56-6.84,2.56h-29.88v-9h26.37c1.74,0,2.61-.9,2.61-2.7v-12.87h-1.53c-.66,1.02-1.56,2.06-2.7,3.1-1.14,1.05-2.64,1.94-4.5,2.65-1.86.72-4.2,1.08-7.02,1.08-3.72,0-7.14-.88-10.26-2.65-3.12-1.77-5.61-4.32-7.47-7.65-1.86-3.33-2.79-7.33-2.79-12.01ZM243.36,55.44c3.72,0,6.81-1.18,9.27-3.56,2.46-2.37,3.69-5.68,3.69-9.94v-.9c0-4.32-1.21-7.65-3.64-9.99s-5.54-3.51-9.32-3.51-6.83,1.17-9.31,3.51c-2.49,2.34-3.74,5.67-3.74,9.99v.9c0,4.26,1.25,7.58,3.74,9.94,2.49,2.37,5.59,3.56,9.31,3.56ZM279.63,64.26V1.26h10.35v24.39h1.53c.48-1.02,1.26-2.04,2.34-3.06,1.08-1.02,2.5-1.86,4.28-2.52,1.77-.66,4-.99,6.7-.99,3.42,0,6.45.77,9.09,2.3,2.64,1.53,4.69,3.68,6.17,6.43,1.47,2.76,2.21,6.03,2.21,9.81v26.64h-10.35v-25.83c0-3.6-.89-6.28-2.66-8.05-1.77-1.77-4.27-2.66-7.51-2.66-3.66,0-6.54,1.21-8.64,3.65-2.1,2.43-3.15,5.9-3.15,10.4v22.5h-10.35ZM350.64,64.26c-2.88,0-5.17-.85-6.88-2.56-1.71-1.71-2.57-4.03-2.57-6.98v-26.37h-11.61v-8.55h11.61V5.49h10.35v14.31h12.78v8.55h-12.78v24.66c0,1.8.84,2.7,2.52,2.7h8.91v8.55h-12.33Z"/>
  </g>
</svg>